<mxfile host="app.diagrams.net" modified="2021-10-11T17:12:39.985Z" agent="5.0 (Windows NT 10.0; Win64; x64) AppleWebKit/537.36 (KHTML, like Gecko) Chrome/94.0.4606.81 Safari/537.36" etag="wCRkd8UuCG5KtwZ3dPZg" version="15.4.1" type="github">
  <diagram id="CmU3FeHNadlqEfyglv6B" name="Page-1">
    <mxGraphModel dx="2170" dy="1150" grid="1" gridSize="10" guides="1" tooltips="1" connect="1" arrows="1" fold="1" page="1" pageScale="1" pageWidth="1654" pageHeight="1169" math="0" shadow="0">
      <root>
        <mxCell id="0" />
        <mxCell id="1" parent="0" />
        <mxCell id="GXTMQiFwEBiFqibqNCe0-33" value="" style="edgeStyle=none;rounded=0;orthogonalLoop=1;jettySize=auto;html=1;fontSize=14;shadow=1;sketch=1;" edge="1" parent="1" source="GXTMQiFwEBiFqibqNCe0-27" target="GXTMQiFwEBiFqibqNCe0-32">
          <mxGeometry relative="1" as="geometry" />
        </mxCell>
        <mxCell id="GXTMQiFwEBiFqibqNCe0-35" style="edgeStyle=none;rounded=0;orthogonalLoop=1;jettySize=auto;html=1;exitX=1;exitY=0.3333333333333333;exitDx=0;exitDy=0;exitPerimeter=0;fontSize=14;shadow=1;sketch=1;" edge="1" parent="1" source="GXTMQiFwEBiFqibqNCe0-27" target="GXTMQiFwEBiFqibqNCe0-34">
          <mxGeometry relative="1" as="geometry" />
        </mxCell>
        <mxCell id="GXTMQiFwEBiFqibqNCe0-27" value="Pengguna" style="shape=umlActor;verticalLabelPosition=bottom;verticalAlign=top;html=1;outlineConnect=0;fontSize=14;shadow=1;sketch=1;" vertex="1" parent="1">
          <mxGeometry x="20" y="270" width="30" height="60" as="geometry" />
        </mxCell>
        <mxCell id="GXTMQiFwEBiFqibqNCe0-32" value="Daftar" style="ellipse;whiteSpace=wrap;html=1;fontSize=14;verticalAlign=middle;align=center;labelPosition=center;verticalLabelPosition=middle;gradientColor=#7ea6e0;fillColor=#dae8fc;strokeColor=#6c8ebf;shadow=1;sketch=1;" vertex="1" parent="1">
          <mxGeometry x="130" y="200" width="120" height="60" as="geometry" />
        </mxCell>
        <mxCell id="GXTMQiFwEBiFqibqNCe0-45" value="" style="edgeStyle=none;rounded=0;orthogonalLoop=1;jettySize=auto;html=1;fontSize=14;shadow=1;sketch=1;" edge="1" parent="1" source="GXTMQiFwEBiFqibqNCe0-34" target="GXTMQiFwEBiFqibqNCe0-44">
          <mxGeometry relative="1" as="geometry" />
        </mxCell>
        <mxCell id="GXTMQiFwEBiFqibqNCe0-34" value="Login" style="ellipse;whiteSpace=wrap;html=1;fontSize=14;verticalAlign=middle;labelPosition=center;verticalLabelPosition=middle;align=center;gradientColor=#d5739d;fillColor=#e6d0de;strokeColor=#996185;shadow=1;sketch=1;" vertex="1" parent="1">
          <mxGeometry x="130" y="340" width="120" height="60" as="geometry" />
        </mxCell>
        <mxCell id="GXTMQiFwEBiFqibqNCe0-38" value="Include" style="html=1;verticalAlign=bottom;endArrow=open;dashed=1;endSize=8;rounded=0;fontSize=14;exitX=0.5;exitY=0;exitDx=0;exitDy=0;shadow=1;sketch=1;" edge="1" parent="1" source="GXTMQiFwEBiFqibqNCe0-32">
          <mxGeometry relative="1" as="geometry">
            <mxPoint x="230" y="120" as="sourcePoint" />
            <mxPoint x="190" y="120" as="targetPoint" />
          </mxGeometry>
        </mxCell>
        <mxCell id="GXTMQiFwEBiFqibqNCe0-39" value="Registrasi" style="ellipse;fontSize=14;verticalAlign=middle;align=center;whiteSpace=wrap;html=1;labelBorderColor=none;labelBackgroundColor=none;labelPosition=center;verticalLabelPosition=middle;gradientColor=#ffa500;fillColor=#ffcd28;strokeColor=#d79b00;shadow=1;sketch=1;" vertex="1" parent="1">
          <mxGeometry x="130" y="60" width="120" height="60" as="geometry" />
        </mxCell>
        <mxCell id="GXTMQiFwEBiFqibqNCe0-40" value="Include" style="html=1;verticalAlign=bottom;endArrow=open;dashed=1;endSize=8;rounded=0;fontSize=14;exitX=0.5;exitY=1;exitDx=0;exitDy=0;shadow=1;sketch=1;" edge="1" parent="1" source="GXTMQiFwEBiFqibqNCe0-34">
          <mxGeometry relative="1" as="geometry">
            <mxPoint x="210" y="500" as="sourcePoint" />
            <mxPoint x="130" y="500" as="targetPoint" />
          </mxGeometry>
        </mxCell>
        <mxCell id="GXTMQiFwEBiFqibqNCe0-41" value="Password" style="ellipse;whiteSpace=wrap;html=1;fontSize=14;verticalAlign=middle;labelPosition=center;verticalLabelPosition=middle;align=center;gradientColor=#ea6b66;fillColor=#f8cecc;strokeColor=#b85450;shadow=1;sketch=1;" vertex="1" parent="1">
          <mxGeometry x="220" y="500" width="120" height="60" as="geometry" />
        </mxCell>
        <mxCell id="GXTMQiFwEBiFqibqNCe0-42" value="Username" style="ellipse;whiteSpace=wrap;html=1;fontSize=14;verticalAlign=middle;labelPosition=center;verticalLabelPosition=middle;align=center;gradientColor=#ea6b66;fillColor=#f8cecc;strokeColor=#b85450;shadow=1;sketch=1;" vertex="1" parent="1">
          <mxGeometry x="50" y="500" width="120" height="60" as="geometry" />
        </mxCell>
        <mxCell id="GXTMQiFwEBiFqibqNCe0-43" value="Include" style="html=1;verticalAlign=bottom;endArrow=open;dashed=1;endSize=8;rounded=0;fontSize=14;entryX=0.5;entryY=0;entryDx=0;entryDy=0;shadow=1;sketch=1;" edge="1" parent="1" target="GXTMQiFwEBiFqibqNCe0-41">
          <mxGeometry relative="1" as="geometry">
            <mxPoint x="190" y="400" as="sourcePoint" />
            <mxPoint x="140" y="510" as="targetPoint" />
          </mxGeometry>
        </mxCell>
        <mxCell id="GXTMQiFwEBiFqibqNCe0-44" value="Dashboard" style="ellipse;whiteSpace=wrap;html=1;fontSize=14;verticalAlign=middle;labelPosition=center;verticalLabelPosition=middle;align=center;gradientColor=#ffd966;fillColor=#fff2cc;strokeColor=#d6b656;shadow=1;sketch=1;" vertex="1" parent="1">
          <mxGeometry x="330" y="340" width="120" height="60" as="geometry" />
        </mxCell>
        <mxCell id="GXTMQiFwEBiFqibqNCe0-46" value="Pendaftaran Uji" style="ellipse;whiteSpace=wrap;html=1;labelBackgroundColor=none;labelBorderColor=none;fontSize=14;align=center;gradientColor=#97d077;fillColor=#d5e8d4;strokeColor=#82b366;shadow=1;sketch=1;" vertex="1" parent="1">
          <mxGeometry x="590" y="220" width="120" height="80" as="geometry" />
        </mxCell>
        <mxCell id="GXTMQiFwEBiFqibqNCe0-47" value="Profil Kendaraan" style="ellipse;whiteSpace=wrap;html=1;labelBackgroundColor=none;labelBorderColor=none;fontSize=14;align=center;gradientColor=#b3b3b3;fillColor=#f5f5f5;strokeColor=#666666;shadow=1;sketch=1;" vertex="1" parent="1">
          <mxGeometry x="960" y="460" width="120" height="80" as="geometry" />
        </mxCell>
        <mxCell id="GXTMQiFwEBiFqibqNCe0-49" value="Riwayat Pengujian" style="ellipse;whiteSpace=wrap;html=1;labelBackgroundColor=none;labelBorderColor=none;fontSize=14;align=center;gradientColor=#d5739d;fillColor=#e6d0de;strokeColor=#996185;shadow=1;sketch=1;" vertex="1" parent="1">
          <mxGeometry x="590" y="570" width="120" height="80" as="geometry" />
        </mxCell>
        <mxCell id="GXTMQiFwEBiFqibqNCe0-53" value="Lapor Pengaduan" style="ellipse;whiteSpace=wrap;html=1;labelBackgroundColor=none;labelBorderColor=none;fontSize=14;align=center;gradientColor=#ffa500;fillColor=#ffcd28;strokeColor=#d79b00;shadow=1;sketch=1;" vertex="1" parent="1">
          <mxGeometry x="500" y="980" width="120" height="80" as="geometry" />
        </mxCell>
        <mxCell id="GXTMQiFwEBiFqibqNCe0-59" value="Extend" style="html=1;verticalAlign=bottom;endArrow=open;dashed=1;endSize=8;rounded=0;fontSize=14;entryX=0.5;entryY=0;entryDx=0;entryDy=0;exitX=0;exitY=0.5;exitDx=0;exitDy=0;shadow=1;sketch=1;" edge="1" parent="1" source="GXTMQiFwEBiFqibqNCe0-46" target="GXTMQiFwEBiFqibqNCe0-44">
          <mxGeometry relative="1" as="geometry">
            <mxPoint x="530" y="209.17000000000002" as="sourcePoint" />
            <mxPoint x="450" y="209.17000000000002" as="targetPoint" />
          </mxGeometry>
        </mxCell>
        <mxCell id="GXTMQiFwEBiFqibqNCe0-60" value="Extend" style="html=1;verticalAlign=bottom;endArrow=open;dashed=1;endSize=8;rounded=0;fontSize=14;exitX=0;exitY=0.5;exitDx=0;exitDy=0;shadow=1;sketch=1;" edge="1" parent="1" source="GXTMQiFwEBiFqibqNCe0-47">
          <mxGeometry relative="1" as="geometry">
            <mxPoint x="530.0000000000002" y="329.1700000000001" as="sourcePoint" />
            <mxPoint x="450" y="370" as="targetPoint" />
          </mxGeometry>
        </mxCell>
        <mxCell id="GXTMQiFwEBiFqibqNCe0-62" value="Extend" style="html=1;verticalAlign=bottom;endArrow=open;dashed=1;endSize=8;rounded=0;fontSize=14;entryX=1;entryY=1;entryDx=0;entryDy=0;exitX=0;exitY=0;exitDx=0;exitDy=0;shadow=1;sketch=1;" edge="1" parent="1" source="GXTMQiFwEBiFqibqNCe0-49" target="GXTMQiFwEBiFqibqNCe0-44">
          <mxGeometry relative="1" as="geometry">
            <mxPoint x="530.0000000000002" y="558.3300000000002" as="sourcePoint" />
            <mxPoint x="450.0000000000002" y="558.3300000000002" as="targetPoint" />
          </mxGeometry>
        </mxCell>
        <mxCell id="GXTMQiFwEBiFqibqNCe0-63" value="Extend" style="html=1;verticalAlign=bottom;endArrow=open;dashed=1;endSize=8;rounded=0;fontSize=14;entryX=0.5;entryY=1;entryDx=0;entryDy=0;exitX=0;exitY=0;exitDx=0;exitDy=0;shadow=1;sketch=1;" edge="1" parent="1" source="GXTMQiFwEBiFqibqNCe0-53" target="GXTMQiFwEBiFqibqNCe0-44">
          <mxGeometry relative="1" as="geometry">
            <mxPoint x="530.0000000000002" y="669.1700000000001" as="sourcePoint" />
            <mxPoint x="450.0000000000002" y="669.1700000000001" as="targetPoint" />
          </mxGeometry>
        </mxCell>
        <mxCell id="GXTMQiFwEBiFqibqNCe0-66" value="No.Uji KIR" style="ellipse;whiteSpace=wrap;html=1;labelBackgroundColor=none;labelBorderColor=none;fontSize=14;align=center;gradientColor=#ffd966;fillColor=#fff2cc;strokeColor=#d6b656;shadow=1;sketch=1;" vertex="1" parent="1">
          <mxGeometry x="590" y="30" width="120" height="80" as="geometry" />
        </mxCell>
        <mxCell id="GXTMQiFwEBiFqibqNCe0-67" value="Retribusi Pembayaran" style="ellipse;whiteSpace=wrap;html=1;labelBackgroundColor=none;labelBorderColor=none;fontSize=14;align=center;fillColor=#fff2cc;strokeColor=#d6b656;gradientColor=#ffd966;shadow=1;sketch=1;" vertex="1" parent="1">
          <mxGeometry x="970" y="120" width="120" height="80" as="geometry" />
        </mxCell>
        <mxCell id="GXTMQiFwEBiFqibqNCe0-68" value="TGL Booking" style="ellipse;whiteSpace=wrap;html=1;labelBackgroundColor=none;labelBorderColor=none;fontSize=14;align=center;fillColor=#fff2cc;strokeColor=#d6b656;gradientColor=#ffd966;shadow=1;sketch=1;" vertex="1" parent="1">
          <mxGeometry x="767" y="60" width="120" height="80" as="geometry" />
        </mxCell>
        <mxCell id="GXTMQiFwEBiFqibqNCe0-69" value="Nomer Pembayaran" style="ellipse;whiteSpace=wrap;html=1;labelBackgroundColor=none;labelBorderColor=none;fontSize=14;align=center;fillColor=#fff2cc;strokeColor=#d6b656;gradientColor=#ffd966;shadow=1;sketch=1;" vertex="1" parent="1">
          <mxGeometry x="1130" y="220" width="120" height="80" as="geometry" />
        </mxCell>
        <mxCell id="GXTMQiFwEBiFqibqNCe0-70" value="Detail Kendaraan" style="ellipse;whiteSpace=wrap;html=1;labelBackgroundColor=none;labelBorderColor=none;fontSize=14;align=center;gradientColor=#7ea6e0;fillColor=#dae8fc;strokeColor=#6c8ebf;shadow=1;sketch=1;" vertex="1" parent="1">
          <mxGeometry x="1310" y="460" width="120" height="80" as="geometry" />
        </mxCell>
        <mxCell id="GXTMQiFwEBiFqibqNCe0-71" value="Kolom Pengaduan" style="ellipse;whiteSpace=wrap;html=1;labelBackgroundColor=none;labelBorderColor=none;fontSize=14;align=center;gradientColor=#7ea6e0;fillColor=#dae8fc;strokeColor=#6c8ebf;shadow=1;sketch=1;" vertex="1" parent="1">
          <mxGeometry x="800" y="1070" width="120" height="80" as="geometry" />
        </mxCell>
        <mxCell id="GXTMQiFwEBiFqibqNCe0-72" value="No.Telepon" style="ellipse;whiteSpace=wrap;html=1;labelBackgroundColor=none;labelBorderColor=none;fontSize=14;align=center;gradientColor=#7ea6e0;fillColor=#dae8fc;strokeColor=#6c8ebf;shadow=1;sketch=1;" vertex="1" parent="1">
          <mxGeometry x="800" y="880" width="120" height="80" as="geometry" />
        </mxCell>
        <mxCell id="GXTMQiFwEBiFqibqNCe0-73" value="TGL Uji Selanjutnya" style="ellipse;whiteSpace=wrap;html=1;labelBackgroundColor=none;labelBorderColor=none;fontSize=14;align=center;gradientColor=#7ea6e0;fillColor=#dae8fc;strokeColor=#6c8ebf;shadow=1;sketch=1;" vertex="1" parent="1">
          <mxGeometry x="1290" y="610" width="120" height="80" as="geometry" />
        </mxCell>
        <mxCell id="GXTMQiFwEBiFqibqNCe0-74" value="Hasil Pengecekan Detail" style="ellipse;whiteSpace=wrap;html=1;labelBackgroundColor=none;labelBorderColor=none;fontSize=14;align=center;gradientColor=#ea6b66;fillColor=#f8cecc;strokeColor=#b85450;shadow=1;sketch=1;" vertex="1" parent="1">
          <mxGeometry x="830" y="620" width="120" height="80" as="geometry" />
        </mxCell>
        <mxCell id="GXTMQiFwEBiFqibqNCe0-75" value="Extend" style="html=1;verticalAlign=bottom;endArrow=open;dashed=1;endSize=8;rounded=0;fontSize=14;entryX=0.5;entryY=0;entryDx=0;entryDy=0;exitX=0.5;exitY=1;exitDx=0;exitDy=0;shadow=1;sketch=1;" edge="1" parent="1" source="GXTMQiFwEBiFqibqNCe0-66" target="GXTMQiFwEBiFqibqNCe0-46">
          <mxGeometry relative="1" as="geometry">
            <mxPoint x="689.9999999999957" y="70" as="sourcePoint" />
            <mxPoint x="560" y="240" as="targetPoint" />
          </mxGeometry>
        </mxCell>
        <mxCell id="GXTMQiFwEBiFqibqNCe0-76" value="Extend" style="html=1;verticalAlign=bottom;endArrow=open;dashed=1;endSize=8;rounded=0;fontSize=14;entryX=1;entryY=0;entryDx=0;entryDy=0;exitX=0;exitY=1;exitDx=0;exitDy=0;shadow=1;sketch=1;" edge="1" parent="1" source="GXTMQiFwEBiFqibqNCe0-68" target="GXTMQiFwEBiFqibqNCe0-46">
          <mxGeometry relative="1" as="geometry">
            <mxPoint x="699.9999999999957" y="160" as="sourcePoint" />
            <mxPoint x="632.4264068711987" y="231.71572875253435" as="targetPoint" />
          </mxGeometry>
        </mxCell>
        <mxCell id="GXTMQiFwEBiFqibqNCe0-77" value="Extend" style="html=1;verticalAlign=bottom;endArrow=open;dashed=1;endSize=8;rounded=0;fontSize=14;entryX=1;entryY=0.5;entryDx=0;entryDy=0;exitX=0;exitY=0.5;exitDx=0;exitDy=0;shadow=1;sketch=1;" edge="1" parent="1" source="GXTMQiFwEBiFqibqNCe0-67" target="GXTMQiFwEBiFqibqNCe0-46">
          <mxGeometry relative="1" as="geometry">
            <mxPoint x="699.9999999999957" y="258.28" as="sourcePoint" />
            <mxPoint x="632.4264068711987" y="329.9957287525343" as="targetPoint" />
          </mxGeometry>
        </mxCell>
        <mxCell id="GXTMQiFwEBiFqibqNCe0-78" value="Extend" style="html=1;verticalAlign=bottom;endArrow=open;dashed=1;endSize=8;rounded=0;fontSize=14;entryX=1;entryY=1;entryDx=0;entryDy=0;exitX=0;exitY=0.5;exitDx=0;exitDy=0;shadow=1;sketch=1;" edge="1" parent="1" source="GXTMQiFwEBiFqibqNCe0-69" target="GXTMQiFwEBiFqibqNCe0-46">
          <mxGeometry relative="1" as="geometry">
            <mxPoint x="700" y="310" as="sourcePoint" />
            <mxPoint x="632.4264068711987" y="441.71572875253435" as="targetPoint" />
          </mxGeometry>
        </mxCell>
        <mxCell id="GXTMQiFwEBiFqibqNCe0-81" value="No. Uji KIR" style="ellipse;whiteSpace=wrap;html=1;labelBackgroundColor=none;labelBorderColor=none;fontSize=14;align=center;gradientColor=#7ea6e0;fillColor=#dae8fc;strokeColor=#6c8ebf;shadow=1;sketch=1;" vertex="1" parent="1">
          <mxGeometry x="1160" y="340" width="120" height="80" as="geometry" />
        </mxCell>
        <mxCell id="GXTMQiFwEBiFqibqNCe0-82" value="Status Uji Terakhir" style="ellipse;whiteSpace=wrap;html=1;labelBackgroundColor=none;labelBorderColor=none;fontSize=14;align=center;gradientColor=#7ea6e0;fillColor=#dae8fc;strokeColor=#6c8ebf;shadow=1;sketch=1;" vertex="1" parent="1">
          <mxGeometry x="1090" y="670" width="120" height="80" as="geometry" />
        </mxCell>
        <mxCell id="GXTMQiFwEBiFqibqNCe0-86" value="Status Uji (LULUS/TIDAK)" style="ellipse;whiteSpace=wrap;html=1;labelBackgroundColor=none;labelBorderColor=none;fontSize=14;align=center;gradientColor=#ea6b66;fillColor=#f8cecc;strokeColor=#b85450;shadow=1;sketch=1;" vertex="1" parent="1">
          <mxGeometry x="660" y="750" width="120" height="80" as="geometry" />
        </mxCell>
        <mxCell id="GXTMQiFwEBiFqibqNCe0-87" value="Extend" style="html=1;verticalAlign=bottom;endArrow=open;dashed=1;endSize=8;rounded=0;fontSize=14;entryX=1;entryY=0;entryDx=0;entryDy=0;exitX=0;exitY=0.5;exitDx=0;exitDy=0;shadow=1;sketch=1;" edge="1" parent="1" source="GXTMQiFwEBiFqibqNCe0-81" target="GXTMQiFwEBiFqibqNCe0-47">
          <mxGeometry relative="1" as="geometry">
            <mxPoint x="1140" y="400" as="sourcePoint" />
            <mxPoint x="702.4264068711927" y="428.2842712474619" as="targetPoint" />
          </mxGeometry>
        </mxCell>
        <mxCell id="GXTMQiFwEBiFqibqNCe0-88" value="Extend" style="html=1;verticalAlign=bottom;endArrow=open;dashed=1;endSize=8;rounded=0;fontSize=14;entryX=1;entryY=0.5;entryDx=0;entryDy=0;exitX=0;exitY=0.5;exitDx=0;exitDy=0;shadow=1;sketch=1;" edge="1" parent="1" source="GXTMQiFwEBiFqibqNCe0-70" target="GXTMQiFwEBiFqibqNCe0-47">
          <mxGeometry relative="1" as="geometry">
            <mxPoint x="1290" y="511.72" as="sourcePoint" />
            <mxPoint x="852.4264068711927" y="540.0042712474619" as="targetPoint" />
          </mxGeometry>
        </mxCell>
        <mxCell id="GXTMQiFwEBiFqibqNCe0-89" value="Extend" style="html=1;verticalAlign=bottom;endArrow=open;dashed=1;endSize=8;rounded=0;fontSize=14;entryX=1;entryY=1;entryDx=0;entryDy=0;exitX=0;exitY=0.5;exitDx=0;exitDy=0;shadow=1;sketch=1;" edge="1" parent="1" source="GXTMQiFwEBiFqibqNCe0-73" target="GXTMQiFwEBiFqibqNCe0-47">
          <mxGeometry relative="1" as="geometry">
            <mxPoint x="1160" y="290" as="sourcePoint" />
            <mxPoint x="722.4264068711927" y="318.2842712474619" as="targetPoint" />
          </mxGeometry>
        </mxCell>
        <mxCell id="GXTMQiFwEBiFqibqNCe0-90" value="Extend" style="html=1;verticalAlign=bottom;endArrow=open;dashed=1;endSize=8;rounded=0;fontSize=14;entryX=0.5;entryY=1;entryDx=0;entryDy=0;exitX=0;exitY=0;exitDx=0;exitDy=0;shadow=1;sketch=1;" edge="1" parent="1" source="GXTMQiFwEBiFqibqNCe0-82" target="GXTMQiFwEBiFqibqNCe0-47">
          <mxGeometry relative="1" as="geometry">
            <mxPoint x="1170" y="300" as="sourcePoint" />
            <mxPoint x="732.4264068711927" y="328.2842712474619" as="targetPoint" />
          </mxGeometry>
        </mxCell>
        <mxCell id="GXTMQiFwEBiFqibqNCe0-91" value="Extend" style="html=1;verticalAlign=bottom;endArrow=open;dashed=1;endSize=8;rounded=0;fontSize=14;entryX=1;entryY=0.5;entryDx=0;entryDy=0;exitX=0;exitY=0.5;exitDx=0;exitDy=0;shadow=1;sketch=1;" edge="1" parent="1" source="GXTMQiFwEBiFqibqNCe0-74" target="GXTMQiFwEBiFqibqNCe0-49">
          <mxGeometry relative="1" as="geometry">
            <mxPoint x="1180" y="310" as="sourcePoint" />
            <mxPoint x="742.4264068711927" y="338.2842712474619" as="targetPoint" />
          </mxGeometry>
        </mxCell>
        <mxCell id="GXTMQiFwEBiFqibqNCe0-92" value="Extend" style="html=1;verticalAlign=bottom;endArrow=open;dashed=1;endSize=8;rounded=0;fontSize=14;entryX=0.5;entryY=1;entryDx=0;entryDy=0;exitX=0;exitY=0;exitDx=0;exitDy=0;shadow=1;sketch=1;" edge="1" parent="1" source="GXTMQiFwEBiFqibqNCe0-86" target="GXTMQiFwEBiFqibqNCe0-49">
          <mxGeometry relative="1" as="geometry">
            <mxPoint x="1190" y="320" as="sourcePoint" />
            <mxPoint x="752.4264068711927" y="348.2842712474619" as="targetPoint" />
          </mxGeometry>
        </mxCell>
        <mxCell id="GXTMQiFwEBiFqibqNCe0-93" value="Extend" style="html=1;verticalAlign=bottom;endArrow=open;dashed=1;endSize=8;rounded=0;fontSize=14;entryX=1;entryY=0;entryDx=0;entryDy=0;exitX=0;exitY=0.5;exitDx=0;exitDy=0;shadow=1;sketch=1;" edge="1" parent="1" source="GXTMQiFwEBiFqibqNCe0-72" target="GXTMQiFwEBiFqibqNCe0-53">
          <mxGeometry relative="1" as="geometry">
            <mxPoint x="1200" y="330" as="sourcePoint" />
            <mxPoint x="762.4264068711927" y="358.2842712474619" as="targetPoint" />
          </mxGeometry>
        </mxCell>
        <mxCell id="GXTMQiFwEBiFqibqNCe0-94" value="Extend" style="html=1;verticalAlign=bottom;endArrow=open;dashed=1;endSize=8;rounded=0;fontSize=14;entryX=1;entryY=1;entryDx=0;entryDy=0;exitX=0;exitY=0.5;exitDx=0;exitDy=0;shadow=1;sketch=1;" edge="1" parent="1" source="GXTMQiFwEBiFqibqNCe0-71" target="GXTMQiFwEBiFqibqNCe0-53">
          <mxGeometry relative="1" as="geometry">
            <mxPoint x="1210" y="340" as="sourcePoint" />
            <mxPoint x="772.4264068711927" y="368.2842712474619" as="targetPoint" />
          </mxGeometry>
        </mxCell>
        <mxCell id="GXTMQiFwEBiFqibqNCe0-95" value="Extend" style="html=1;verticalAlign=bottom;endArrow=open;dashed=1;endSize=8;rounded=0;fontSize=14;entryX=1;entryY=0.5;entryDx=0;entryDy=0;exitX=0;exitY=0.5;exitDx=0;exitDy=0;shadow=1;sketch=1;" edge="1" parent="1" source="GXTMQiFwEBiFqibqNCe0-96" target="GXTMQiFwEBiFqibqNCe0-86">
          <mxGeometry relative="1" as="geometry">
            <mxPoint x="870" y="790" as="sourcePoint" />
            <mxPoint x="812.4300000000001" y="750" as="targetPoint" />
          </mxGeometry>
        </mxCell>
        <mxCell id="GXTMQiFwEBiFqibqNCe0-96" value="Cetak Hasil Uji" style="ellipse;whiteSpace=wrap;html=1;labelBackgroundColor=none;labelBorderColor=none;fontSize=14;align=center;gradientColor=#ffd966;fillColor=#fff2cc;strokeColor=#d6b656;shadow=1;sketch=1;" vertex="1" parent="1">
          <mxGeometry x="890" y="750" width="120" height="80" as="geometry" />
        </mxCell>
      </root>
    </mxGraphModel>
  </diagram>
</mxfile>
